<svg width="32" height="32" viewBox="0 0 24 24" fill="none" xmlns="http://www.w3.org/2000/svg">
  <path d="M9.5 2A2.5 2.5 0 0 0 7 4.5v15A2.5 2.5 0 0 0 9.5 22h5a2.5 2.5 0 0 0 2.5-2.5v-15A2.5 2.5 0 0 0 14.5 2h-5Z" fill="#2563eb"/>
  <path d="M12 6.5a3 3 0 0 1 3 3v5a3 3 0 0 1-3 3 3 3 0 0 1-3-3v-5a3 3 0 0 1 3-3Z" fill="#ffffff"/>
  <circle cx="10.5" cy="10" r="0.5" fill="#2563eb"/>
  <circle cx="13.5" cy="10" r="0.5" fill="#2563eb"/>
  <path d="M10 12h4" stroke="#2563eb" stroke-width="0.5" stroke-linecap="round"/>
  <path d="M9.5 14h5" stroke="#2563eb" stroke-width="0.5" stroke-linecap="round"/>
</svg>